<svg xmlns="http://www.w3.org/2000/svg" xmlns:xlink="http://www.w3.org/1999/xlink" aria-hidden="true" role="img" class="iconify iconify--logos" width="35.93" height="32" preserveAspectRatio="xMidYMid meet" viewBox="0 0 256 228"><path fill="#00D8FF" d="M210.429 145.675c-2.491-4.437-6.315-7.967-10.937-10.28c-4.528-2.366-9.521-3.58-14.583-3.58c-5.062 0-10.055 1.214-14.583 3.58c-4.622 2.313-8.446 5.843-10.937 10.28c-2.563 4.437-3.884 9.456-3.884 14.583c0 5.128 1.321 10.147 3.884 14.583c2.491 4.437 6.315 7.967 10.937 10.28c4.528 2.366 9.521 3.58 14.583 3.58c5.062 0 10.055-1.214 14.583-3.58c4.622-2.313 8.446-5.843 10.937-10.28c2.563-4.436 3.884-9.455 3.884-14.583c.001-5.127-1.32-10.146-3.884-14.583zM161.585 69.412c-2.491-4.437-6.315-7.967-10.937-10.28c-4.528-2.366-9.521-3.58-14.583-3.58c-5.062 0-10.055 1.214-14.583 3.58c-4.622 2.313-8.446 5.843-10.937 10.28c-2.563 4.437-3.884 9.456-3.884 14.583c0 5.128 1.321 10.147 3.884 14.583c2.491 4.437 6.315 7.967 10.937 10.28c4.528 2.366 9.521 3.58 14.583 3.58c5.062 0 10.055-1.214 14.583-3.58c4.622-2.313 8.446-5.843 10.937-10.28c2.563-4.436 3.884-9.455 3.884-14.583c0-5.127-1.32-10.146-3.884-14.583zM92.74 145.675c-2.491-4.437-6.315-7.967-10.937-10.28c-4.528-2.366-9.521-3.58-14.583-3.58c-5.062 0-10.055 1.214-14.583 3.58c-4.622 2.313-8.446 5.843-10.937 10.28c-2.563 4.437-3.884 9.456-3.884 14.583c0 5.128 1.321 10.147 3.884 14.583c2.491 4.437 6.315 7.967 10.937 10.28c4.528 2.366 9.521 3.58 14.583 3.58c5.062 0 10.055-1.214 14.583-3.58c4.622-2.313 8.446-5.843 10.937-10.28c2.563-4.436 3.884-9.455 3.884-14.583c0-5.127-1.32-10.146-3.884-14.583zM161.585 221.938c-2.491-4.437-6.315-7.967-10.937-10.28c-4.528-2.366-9.521-3.58-14.583-3.58c-5.062 0-10.055 1.214-14.583 3.58c-4.622 2.313-8.446 5.843-10.937 10.28c-2.563 4.437-3.884 9.456-3.884 14.583c0 5.128 1.321 10.147 3.884 14.583c2.491 4.437 6.315 7.967 10.937 10.28c4.528 2.366 9.521 3.58 14.583 3.58c5.062 0 10.055-1.214 14.583-3.58c4.622-2.313 8.446-5.843 10.937-10.28c2.563-4.436 3.884-9.455 3.884-14.583c0-5.127-1.32-10.146-3.884-14.583zM112.662 69.412c-2.491-4.437-6.315-7.967-10.937-10.28c-4.528-2.366-9.521-3.58-14.583-3.58c-5.062 0-10.055 1.214-14.583 3.58c-4.622 2.313-8.446 5.843-10.937 10.28c-2.563 4.437-3.884 9.456-3.884 14.583c0 5.128 1.321 10.147 3.884 14.583c2.491 4.437 6.315 7.967 10.937 10.28c4.528 2.366 9.521 3.58 14.583 3.58c5.062 0 10.055-1.214 14.583-3.58c4.622-2.313 8.446-5.843 10.937-10.28c2.563-4.436 3.884-9.455 3.884-14.583c0-5.127-1.32-10.146-3.884-14.583zM42.816 145.675c-2.491-4.437-6.315-7.967-10.937-10.28c-4.528-2.366-9.521-3.58-14.583-3.58c-5.062 0-10.055 1.214-14.583 3.58c-4.622 2.313-8.446 5.843-10.937 10.28c-2.563 4.437-3.884 9.456-3.884 14.583c0 5.128 1.321 10.147 3.884 14.583c2.491 4.437 6.315 7.967 10.937 10.28c4.528 2.366 9.521 3.58 14.583 3.58c5.062 0 10.055-1.214 14.583-3.58c4.622-2.313 8.446-5.843 10.937-10.28c2.563-4.436 3.884-9.455 3.884-14.583c0-5.127-1.32-10.146-3.884-14.583zM161.585 0c-2.491-4.437-6.315-7.967-10.937-10.28c-4.528-2.366-9.521-3.58-14.583-3.58c-5.062 0-10.055 1.214-14.583 3.58c-4.622 2.313-8.446 5.843-10.937 10.28c-2.563 4.437-3.884 9.456-3.884 14.583c0 5.128 1.321 10.147 3.884 14.583c2.491 4.437 6.315 7.967 10.937 10.28c4.528 2.366 9.521 3.58 14.583 3.58c5.062 0 10.055-1.214 14.583-3.58c4.622-2.313 8.446-5.843 10.937-10.28c2.563-4.436 3.884-9.455 3.884-14.583C165.469 9.456 164.148 4.437 161.585 0zM73.688 221.938c-2.491-4.437-6.315-7.967-10.937-10.28c-4.528-2.366-9.521-3.58-14.583-3.58c-5.062 0-10.055 1.214-14.583 3.58c-4.622 2.313-8.446 5.843-10.937 10.28c-2.563 4.437-3.884 9.456-3.884 14.583c0 5.128 1.321 10.147 3.884 14.583c2.491 4.437 6.315 7.967 10.937 10.28c4.528 2.366 9.521 3.58 14.583 3.58c5.062 0 10.055-1.214 14.583-3.58c4.622-2.313 8.446-5.843 10.937-10.28c2.563-4.436 3.884-9.455 3.884-14.583c0-5.127-1.32-10.146-3.884-14.583zM112.662 221.938c-2.491-4.437-6.315-7.967-10.937-10.28c-4.528-2.366-9.521-3.58-14.583-3.58c-5.062 0-10.055 1.214-14.583 3.58c-4.622 2.313-8.446-5.843-10.937-10.28c-2.563-4.436-3.884-9.455-3.884-14.583c0-5.127 1.321-10.146 3.884-14.583c2.491-4.437 6.315-7.967 10.937-10.28c4.528-2.366 9.521-3.58 14.583-3.58c5.062 0 10.055 1.214 14.583 3.58c4.622 2.313 8.446 5.843 10.937 10.28c2.563 4.437 3.884 9.456 3.884 14.583c0 5.128-1.321 10.147-3.884 14.583c-2.491 4.437-6.315 7.967-10.937 10.28c-4.528 2.366-9.521 3.58-14.583 3.58c-5.062 0-10.055-1.214-14.583-3.58c-4.622-2.313-8.446-5.843-10.937-10.28c-2.563-4.436-3.884-9.455-3.884-14.583c0-5.127 1.321-10.146 3.884-14.583c2.491-4.437 6.315-7.967 10.937-10.28c4.528-2.366 9.521-3.58 14.583-3.58c5.062 0 10.055 1.214 14.583 3.58c4.622 2.313 8.446 5.843 10.937 10.28c2.563 4.436 3.884 9.455 3.884 14.583c0 5.127-1.32 10.146-3.884 14.583z"></path></svg>